<?xml version="1.0" encoding="utf-8"?>
<!-- Generator: Adobe Illustrator 16.0.0, SVG Export Plug-In . SVG Version: 6.00 Build 0)  -->
<!DOCTYPE svg PUBLIC "-//W3C//DTD SVG 1.1//EN" "http://www.w3.org/Graphics/SVG/1.1/DTD/svg11.dtd">
<svg version="1.1" id="Capa_1" xmlns="http://www.w3.org/2000/svg" xmlns:xlink="http://www.w3.org/1999/xlink" x="0px" y="0px"
	 width="566.93px" height="566.93px" viewBox="0 0 566.93 566.93" enable-background="new 0 0 566.93 566.93" xml:space="preserve">
<g id="Capa_1_1_">
</g>
<g id="Capa_2">
	<path fill="#F9AD01" d="M170.865,141.282c-11.343,1.275-24.362-21.445-11.134-34.217
		C153.305,114.711,158.139,135.647,170.865,141.282 M169.011,230.465c-16.259,23.481-37.32,75.063-38.515,99.751
		c-0.944,19.385,4.543,43.051,29.247,65.246c-11.206-12.353-19.853-30.333-22.732-45.505
		C130.485,315.531,153.268,261.741,169.011,230.465z M337.023,126.821c4.228-9.804,7.354-16.178,18.116-22.66
		c9.176-5.509,19.361-5.436,25.969-1.631C364.844,100.715,347.624,107.58,337.023,126.821z M368.863,247.758
		c8.454,26.753,30.345,80.913,8.102,115.594c-10.393,16.228-22.045,21.917-34.256,26.277c-7.622,2.707,5,4.449,10.539,3.212
		c10.886-2.451,25.308-19.817,28.237-25.591C391.081,348.451,399.808,312.882,368.863,247.758z M333.297,460.736
		c-13.556,3.678-34.413,6.042-57.75,6.042c-23.334,0-44.195-2.364-57.736-6.042C254.184,464.582,296.936,464.582,333.297,460.736z
		 M237.813,434.191c-0.149-3.753-0.245-16.079-0.318-20.404h-2.39c0.5,8.271,1.211,21.678,2.009,21.678
		C237.346,435.464,237.592,435.023,237.813,434.191z M255.46,434.042c-0.146-3.7-0.246-15.98-0.33-20.257h-2.377
		c0.491,8.271,1.215,21.678,1.999,21.678C254.984,435.464,255.227,434.976,255.46,434.042z M273.109,433.935
		c-0.149-3.666-0.245-15.896-0.33-20.148h-2.38c0.504,8.298,1.215,21.678,1.988,21.678
		C272.631,435.464,272.877,434.948,273.109,433.935z M290.721,434.042c-0.146-3.7-0.245-15.98-0.331-20.257h-2.391
		c0.514,8.271,1.239,21.678,2.011,21.678C290.256,435.464,290.502,434.976,290.721,434.042z M308.332,434.166
		c-0.136-3.738-0.243-16.056-0.32-20.38h-2.401c0.505,8.271,1.239,21.678,2.023,21.678
		C307.881,435.464,308.115,435.023,308.332,434.166z M290.256,398.894V187.805c1.89,0.22,3.776,0.49,5.624,0.797v162.569h8.946
		v32.834c0,5.233,0.071,10.257,0.185,14.89L290.256,398.894L290.256,398.894z M272.631,398.894c0-0.366,0-0.731,0-1.102V187.069
		c1.875-0.05,3.75-0.075,5.611-0.05V351.17h8.951v31.533c0,5.699,0.085,11.178,0.209,16.189L272.631,398.894L272.631,398.894z
		 M255.009,398.894V188.943c1.862-0.342,3.737-0.638,5.612-0.882v163.11h8.947v30.197c0,6.203,0.085,12.133,0.208,17.525H255.009z
		 M237.371,398.894V193.662c1.863-0.673,3.737-1.299,5.625-1.85v159.36h8.947v31.534c0,5.698,0.071,11.177,0.196,16.188
		L237.371,398.894L237.371,398.894z M224.725,194.666c-6.006,3.102-11.621,6.814-16.726,11.166
		c-5.257,4.484-7.304,5.477-9.569,11.802c-11.344,31.679-29.339,78.276-27.577,112.679c2.128,41.189,42.766,58.383,53.233,42.011
		c2.34-3.736,2.635-8.04,2.304-12.478h-1.665h-2.256c-4.73,0-2.66-0.331-2.66,3.335c0,5.073-5.185,7.696-9.803,6.775
		c-3.626-0.746-5.86-3.932-6.301-7.095c-0.968-6.887,4.456-11.692,12.845-11.692h8.175h2.083h7.5v32.833
		c0,5.233,0.074,10.258,0.184,14.891h-3.689c-1.998,0-4.068,0.269-5.993,0.772c-2.66,0.699-4.792,1.826-6.018,3.211
		c1.652-0.747,3.676-1.299,5.933-1.592c1.15-0.174,2.475-0.259,3.617-0.259h94.417c3.099,0,6.838,0.613,9.544,1.851
		c-2.584-2.916-8.136-3.983-12.008-3.983h-12.403V191.286c1.898,0.538,3.774,1.14,5.624,1.764v158.121h10.775h2.069h8.2
		c8.37,0,13.801,4.806,12.829,11.692c-0.441,3.164-2.671,6.361-6.299,7.096c-4.607,0.933-9.805-1.702-9.805-6.776
		c0-3.666,2.069-3.334-2.66-3.334h-2.266h-1.654c-0.454,4.009-0.061,8.419,1.973,11.949c10.148,17.639,53.162-0.601,53.643-44.131
		c0.378-34.124-16.325-78.376-27.636-109.934c-2.401-6.692-4.817-7.55-10.503-12.182c-5.443-4.438-11.483-8.21-17.892-11.324v-0.588
		c-30.286-14.645-69.604-13.85-99.566,1.62V194.666z M197.083,453.762c1.365-38.961-77.646-48.814-73.223-123.254
		c3.819-64.209,89.735-167.057,69.98-194.241c-3.976-5.476-4.049-0.477-6.556,2.575c-8.624,10.479-26.265,7.426-32.761-4.253
		c-9.976-17.916,0.657-31.63,14.749-36.833c22.766-8.401,44.411,9.908,49.554,31.893c3.714,15.907,0.699,25.873-4.166,41.302
		c-0.403,1.287-0.833,2.61-1.275,3.91c0.981-0.147,1.973-0.196,2.92-0.466c2.815-0.748,5.609-1.424,8.419-2.061v-0.071
		c4.226-0.958,8.432-1.814,12.646-2.525V97.847c0-4.816-3.689-4.437-3.689-9.081c0-2.979,2.795-14.67,6.227-14.67
		s6.225,11.237,6.225,14.67c0,3.969-3.138,4.523-3.138,8.909v71.181c3.996-0.588,8.002-1.054,12.012-1.422v-82
		c0-4.797-3.347-4.909-3.347-9.283c0-2.904,2.796-14.659,6.226-14.659c3.433,0,6.225,11.233,6.225,14.659
		c0,4.253-3.492,4.394-3.492,8.953v81.89c4.007-0.257,8.004-0.417,12.011-0.466V74.839c0-4.711-3.309-4.834-3.309-9.173
		c0-2.903,2.796-14.669,6.226-14.669c3.417,0,6.226,11.237,6.226,14.669c0,4.302-3.532,4.468-3.532,9.173v91.689
		c4.012,0.049,8.019,0.221,12.016,0.492V84.765c0-4.379-3.272-4.333-3.272-8.615c0-2.887,2.797-14.659,6.213-14.659
		c3.434,0,6.239,11.712,6.239,14.659c0,4.491-3.557,4.166-3.557,8.615v82.695c4.011,0.367,8.02,0.832,12.013,1.42V97.675
		c0-4.418-2.94-4.877-2.94-8.909c0-2.825,2.795-14.67,6.226-14.67c3.432,0,6.225,11.237,6.225,14.67
		c0,4.596-3.888,4.283-3.888,9.081v71.916c3.582,0.613,7.172,1.347,10.777,2.131v-0.099c3.833,0.822,7.671,1.74,11.494,2.77
		c0.623,0.161,15.87,2.918,16.508,3.028c-0.442-1.298-15.468-5.343-15.872-6.629c-4.866-15.442-7.864-25.407-4.154-41.315
		c5.136-21.984,26.805-40.294,49.552-31.893c14.093,5.203,24.732,18.916,14.754,36.833c-6.496,11.68-24.144,14.732-32.758,4.253
		c-2.516-3.052-2.586-8.051-6.56-2.575c-19.754,27.184,66.158,130.032,69.967,194.241c4.438,74.439-74.596,84.293-73.215,123.266
		c1.241-2.647,2.597-4.978,4.133-7.01c8.834,3.112,21.937-0.208,21.08,9.854c-0.799,9.57-1.718,20.517,0.795,30.173
		c-12.134,25.639-196.814,25.467-208.935,0c3.755-10.21,2.745-21.852,1.104-31.792c-1.271-7.695,13.584-5.697,20.767-8.232
		C194.498,448.799,195.838,451.127,197.083,453.762z"/>
</g>
</svg>
