<?xml version="1.0" encoding="utf-8"?>
<!-- Generator: Adobe Illustrator 16.0.0, SVG Export Plug-In . SVG Version: 6.00 Build 0)  -->
<!DOCTYPE svg PUBLIC "-//W3C//DTD SVG 1.1//EN" "http://www.w3.org/Graphics/SVG/1.1/DTD/svg11.dtd">
<svg version="1.1" xmlns="http://www.w3.org/2000/svg" xmlns:xlink="http://www.w3.org/1999/xlink" x="0px" y="0px"
	 width="566.93px" height="566.93px" viewBox="0 0 566.93 566.93" enable-background="new 0 0 566.93 566.93" xml:space="preserve">
<g id="Capa_1">
</g>
<g id="Capa_2">
	<g>
		<path fill="#FFFFFF" d="M177.101,482.936c0.809,1.602,2.288,2.266,3.513,2.266h0.334v0.361h-9.005v-0.357h0.352
			c1.032,0,2.104-0.818,1.52-2.26l-2.558-6.131h-10.772l-2.679,6.152c-0.564,1.428,0.501,2.238,1.529,2.238h0.352v0.357h-8.05
			v-0.361h0.36c1.216,0,2.695-0.662,3.503-2.264l9.07-19.369c0,0,1.481-2.916,1.481-3.707h0.36L177.101,482.936z M170.805,475.734
			l-4.82-11.553l-5.031,11.553H170.805z"/>
		<path fill="#FFFFFF" d="M195.749,460.367c5.113,0,8.247,2.641,8.247,6.951c0,5.486-6.616,8.408-11.634,6.027l-0.005-0.34
			c0,0,6.579,1.277,8.384-3.879c0.178-0.506,0.28-1.375,0.256-2.172c-0.1-3.305-1.99-5.51-5.392-5.51h-4.61v21.494
			c0.026,1.254,1.162,2.264,2.562,2.264h0.506l0.006,0.359h-8.755l0.006-0.359h0.506c1.399,0,2.535-1.01,2.563-2.264v-20.143
			c-0.13-1.164-1.221-2.074-2.549-2.074h-0.506l-0.006-0.357L195.749,460.367z"/>
		<path fill="#FFFFFF" d="M240.144,472.963c0,7.861-5.87,13.104-14.375,13.104s-14.375-5.242-14.375-13.104
			s5.87-13.102,14.375-13.102S240.144,465.102,240.144,472.963z M237.078,472.965c0-7.217-4.524-12.025-11.309-12.025
			s-11.309,4.809-11.309,12.025c0,7.215,4.524,12.023,11.309,12.023S237.078,480.18,237.078,472.965z"/>
		<path fill="#FFFFFF" d="M265.026,479.748l-2.331,5.814h-16.58l0.006-0.359h0.506c1.4,0,2.536-1.01,2.561-2.264V462.99
			c-0.026-1.254-1.162-2.264-2.562-2.264h-0.506l-0.006-0.359h8.75l-0.006,0.359h-0.506c-1.399,0-2.535,1.01-2.562,2.264v21.471
			h5.736c4.237,0,5.865-1.973,7.1-4.713H265.026z"/>
		<path fill="#FFFFFF" d="M299.344,472.963c0,7.861-5.869,13.104-14.375,13.104c-8.504,0-14.375-5.242-14.375-13.104
			s5.87-13.102,14.375-13.102C293.475,459.861,299.344,465.102,299.344,472.963z M296.278,472.965
			c0-7.217-4.524-12.025-11.31-12.025c-6.785,0-11.309,4.809-11.309,12.025c0,7.215,4.524,12.023,11.309,12.023
			C291.754,484.988,296.278,480.18,296.278,472.965z"/>
		<path fill="#FFFFFF" d="M318.424,474.947c1.599,1.328,2.009,2.934,2.009,4.389c0,3.98-2.89,6.73-7.489,6.73
			c-1.959,0-5.199-0.504-6.771-1.967c-0.298-1.111-0.147-3.404,0.462-5.018h0.352c-0.401,3.709,2.207,6.082,5.768,5.904
			c2.919-0.146,5.358-1.947,5.358-4.824c0-1.406-0.569-2.52-1.569-3.354l-7.66-6.404c-1.618-1.328-2.168-3.066-2.168-4.459
			c0-3.035,2.469-6.084,7.029-6.084c1.049,0,2.367,0.16,3.43,0.369h1.584v0.428v3.988h-0.385c0.01-2.303-2.008-3.705-4.5-3.705
			c-2.947,0-4.918,1.945-4.918,4.139c0,0.939,0.35,2.268,1.609,3.318L318.424,474.947z"/>
		<path fill="#FFFFFF" d="M364.805,460.365v0.361h-0.352c-1.221,0-2.895,0.641-3.509,2.23l-6.622,19.037c0,0-0.813,2.287-0.875,4
			h-0.377l-8.179-20.582l-6.06,16.582c0,0-0.771,2.23-0.838,4h-0.377l-9.076-23.074c-0.664-1.563-2.281-2.195-3.506-2.195h-0.32
			v-0.359h8.889v0.357h-0.352c-1.023,0-2.033,0.797-1.563,2.211l6.05,17.52l7.446-20.65l0.373,0.012l7.887,19.91l5.355-16.855
			c0.397-1.381-0.46-2.146-1.549-2.146H356.9v-0.357H364.805z"/>
		<path fill="#FFFFFF" d="M388.46,482.936c0.809,1.602,2.288,2.266,3.513,2.266h0.334v0.361h-9.005v-0.357h0.352
			c1.032,0,2.104-0.818,1.52-2.26l-2.558-6.131h-10.772l-2.679,6.152c-0.564,1.428,0.501,2.238,1.528,2.238h0.352v0.357h-8.05
			v-0.361h0.359c1.217,0,2.695-0.662,3.504-2.264l9.07-19.369c0,0,1.48-2.916,1.48-3.707h0.36L388.46,482.936z M382.164,475.734
			l-4.82-11.553l-5.031,11.553H382.164z"/>
		<path fill="#FFFFFF" d="M407.108,460.367c5.113,0,8.247,2.641,8.247,6.951c0,5.486-6.616,8.408-11.635,6.027l-0.004-0.34
			c0,0,6.578,1.277,8.384-3.879c0.178-0.506,0.28-1.375,0.256-2.172c-0.101-3.305-1.99-5.51-5.392-5.51h-4.611v21.494
			c0.027,1.254,1.162,2.264,2.563,2.264h0.506l0.006,0.359h-8.754l0.006-0.359h0.506c1.4,0,2.535-1.01,2.563-2.264v-20.143
			c-0.13-1.164-1.221-2.074-2.55-2.074h-0.506l-0.006-0.357L407.108,460.367z"/>
	</g>
	<path fill-rule="evenodd" clip-rule="evenodd" fill="#F9AD01" d="M200.686,141.616c-8.87,0.997-19.052-16.771-8.707-26.759
		C186.953,120.836,190.734,137.208,200.686,141.616 M199.236,211.36c-12.715,18.363-29.186,58.701-30.12,78.007
		c-0.739,15.16,3.552,33.668,22.872,51.025c-8.764-9.66-15.526-23.722-17.778-35.586
		C169.107,277.883,186.924,235.819,199.236,211.36z M330.625,130.306c3.306-7.667,5.75-12.651,14.167-17.721
		c7.176-4.308,15.142-4.251,20.309-1.275C352.382,109.891,338.915,115.259,330.625,130.306z M355.525,224.883
		c6.611,20.922,23.73,63.276,6.336,90.398c-8.128,12.69-17.241,17.139-26.789,20.55c-5.961,2.117,3.91,3.479,8.241,2.511
		c8.513-1.917,19.792-15.498,22.083-20.012C372.901,303.628,379.725,275.812,355.525,224.883z M327.711,391.438
		c-10.6,2.876-26.912,4.726-45.161,4.726c-18.248,0-34.561-1.85-45.151-4.726C265.844,394.447,299.276,394.447,327.711,391.438z
		 M253.041,370.679c-0.116-2.934-0.191-12.574-0.249-15.957h-1.869c0.392,6.469,0.947,16.953,1.571,16.953
		C252.676,371.675,252.868,371.33,253.041,370.679z M266.842,370.563c-0.114-2.894-0.192-12.497-0.258-15.842h-1.859
		c0.384,6.469,0.95,16.953,1.563,16.953C266.469,371.675,266.659,371.293,266.842,370.563z M280.644,370.479
		c-0.116-2.867-0.192-12.431-0.258-15.757h-1.861c0.394,6.489,0.95,16.953,1.554,16.953
		C280.27,371.675,280.462,371.272,280.644,370.479z M294.415,370.563c-0.114-2.894-0.191-12.497-0.258-15.842h-1.87
		c0.402,6.469,0.969,16.953,1.573,16.953C294.052,371.675,294.244,371.293,294.415,370.563z M308.188,370.66
		c-0.106-2.923-0.19-12.556-0.25-15.938h-1.878c0.394,6.469,0.969,16.953,1.582,16.953
		C307.835,371.675,308.018,371.33,308.188,370.66z M294.052,343.076V177.998c1.478,0.172,2.953,0.383,4.398,0.623v127.134h6.997
		v25.677c0,4.093,0.055,8.022,0.144,11.645H294.052z M280.27,343.076c0-0.286,0-0.573,0-0.862V177.422
		c1.466-0.039,2.932-0.058,4.388-0.039v128.371h6.999v24.661c0,4.457,0.066,8.741,0.163,12.66H280.27z M266.489,343.076V178.888
		c1.456-0.268,2.922-0.499,4.388-0.689v127.556h6.997v23.616c0,4.85,0.067,9.488,0.163,13.705H266.489z M252.696,343.076V182.578
		c1.457-0.526,2.922-1.015,4.399-1.446v124.624h6.997v24.661c0,4.457,0.056,8.741,0.153,12.66H252.696z M242.806,183.364
		c-4.697,2.425-9.088,5.329-13.08,8.732c-4.111,3.507-5.712,4.283-7.484,9.229c-8.871,24.775-22.944,61.214-21.566,88.119
		c1.664,32.212,33.444,45.657,41.63,32.853c1.83-2.921,2.06-6.287,1.802-9.757h-1.302h-1.765c-3.699,0-2.08-0.259-2.08,2.608
		c0,3.968-4.054,6.018-7.666,5.299c-2.836-0.584-4.583-3.075-4.928-5.549c-0.756-5.386,3.485-9.144,10.045-9.144h6.394h1.629h5.865
		v25.677c0,4.093,0.058,8.022,0.144,11.645h-2.885c-1.563,0-3.182,0.21-4.687,0.604c-2.08,0.547-3.748,1.428-4.706,2.511
		c1.292-0.584,2.875-1.016,4.64-1.245c0.899-0.136,1.935-0.202,2.828-0.202h73.836c2.424,0,5.348,0.479,7.464,1.447
		c-2.021-2.28-6.362-3.115-9.391-3.115h-9.699V180.72c1.484,0.421,2.951,0.892,4.397,1.38v123.655h8.427h1.618h6.413
		c6.546,0,10.793,3.758,10.034,9.144c-0.346,2.474-2.089,4.974-4.926,5.549c-3.604,0.729-7.668-1.331-7.668-5.299
		c0-2.867,1.618-2.608-2.08-2.608h-1.773h-1.293c-0.355,3.135-0.047,6.584,1.542,9.345c7.937,13.794,41.576-0.469,41.951-34.512
		c0.296-26.686-12.767-61.292-21.612-85.971c-1.878-5.234-3.767-5.905-8.214-9.527c-4.256-3.47-8.98-6.421-13.992-8.855v-0.46
		c-23.684-11.453-54.43-10.831-77.862,1.266V183.364z M221.189,385.985c1.067-30.469-60.722-38.175-57.263-96.389
		c2.986-50.213,70.176-130.644,54.727-151.902c-3.11-4.283-3.167-0.373-5.127,2.013c-6.744,8.195-20.54,5.808-25.62-3.326
		c-7.802-14.011,0.513-24.736,11.534-28.805c17.803-6.57,34.73,7.749,38.753,24.942c2.904,12.439,0.547,20.233-3.258,32.3
		c-0.316,1.006-0.652,2.041-0.997,3.057c0.767-0.115,1.543-0.153,2.283-0.364c2.202-0.585,4.387-1.113,6.584-1.611v-0.056
		c3.305-0.749,6.594-1.419,9.89-1.975v-56.221c0-3.767-2.885-3.47-2.885-7.102c0-2.33,2.185-11.472,4.869-11.472
		c2.684,0,4.868,8.788,4.868,11.472c0,3.104-2.454,3.537-2.454,6.967v55.666c3.125-0.46,6.258-0.824,9.394-1.112V97.94
		c0-3.752-2.618-3.839-2.618-7.26c0-2.272,2.187-11.464,4.87-11.464c2.684,0,4.868,8.785,4.868,11.464
		c0,3.326-2.731,3.436-2.731,7.001v64.041c3.134-0.201,6.26-0.326,9.393-0.364V89.655c0-3.685-2.588-3.781-2.588-7.174
		c0-2.271,2.186-11.472,4.869-11.472c2.673,0,4.869,8.788,4.869,11.472c0,3.364-2.762,3.494-2.762,7.174v71.704
		c3.137,0.038,6.27,0.173,9.395,0.384V97.417c0-3.425-2.56-3.388-2.56-6.737c0-2.258,2.188-11.464,4.86-11.464
		c2.684,0,4.879,9.159,4.879,11.464c0,3.512-2.781,3.258-2.781,6.737v64.67c3.136,0.287,6.271,0.651,9.394,1.111v-55.685
		c0-3.455-2.3-3.814-2.3-6.967c0-2.209,2.186-11.472,4.868-11.472c2.684,0,4.869,8.788,4.869,11.472c0,3.594-3.04,3.35-3.04,7.102
		v56.24c2.8,0.479,5.608,1.054,8.427,1.667v-0.077c2.998,0.642,5.999,1.36,8.99,2.166c0.487,0.126,12.411,2.282,12.909,2.368
		c-0.346-1.016-12.096-4.179-12.412-5.185c-3.806-12.076-6.151-19.869-3.249-32.309c4.016-17.193,20.961-31.512,38.751-24.942
		c11.021,4.069,19.341,14.793,11.538,28.805c-5.08,9.134-18.881,11.521-25.618,3.326c-1.967-2.386-2.022-6.296-5.129-2.013
		c-15.449,21.258,51.737,101.689,54.715,151.902c3.471,58.214-58.336,65.92-57.255,96.398c0.97-2.071,2.03-3.893,3.231-5.482
		c6.909,2.434,17.155-0.163,16.485,7.705c-0.624,7.485-1.342,16.045,0.622,23.597c-9.489,20.05-153.914,19.916-163.392,0
		c2.936-7.984,2.146-17.089,0.863-24.862c-0.994-6.019,10.623-4.456,16.24-6.439C219.167,382.103,220.215,383.924,221.189,385.985z"
		/>
</g>
</svg>
