<?xml version="1.0" encoding="utf-8"?>
<!-- Generator: Adobe Illustrator 16.0.0, SVG Export Plug-In . SVG Version: 6.00 Build 0)  -->
<!DOCTYPE svg PUBLIC "-//W3C//DTD SVG 1.1//EN" "http://www.w3.org/Graphics/SVG/1.1/DTD/svg11.dtd">
<svg version="1.1" xmlns="http://www.w3.org/2000/svg" xmlns:xlink="http://www.w3.org/1999/xlink" x="0px" y="0px"
	 width="566.93px" height="280.003px" viewBox="0 0 566.93 280.003" enable-background="new 0 0 566.93 280.003"
	 xml:space="preserve">
<g id="Capa_1">
</g>
<g id="Capa_2">
	<rect display="none" fill-rule="evenodd" clip-rule="evenodd" fill="#1D1D1B" width="566.93" height="280.003"/>
	<g display="none">
		<path display="inline" fill="#FFFFFF" d="M221.838,159.414c1.098,2.175,3.107,3.077,4.772,3.077h0.454v0.49h-12.23v-0.485h0.478
			c1.402,0,2.855-1.111,2.063-3.069l-3.475-8.328h-14.63l-3.638,8.357c-0.767,1.939,0.681,3.04,2.076,3.04h0.478v0.485h-10.933
			v-0.49h0.488c1.653,0,3.66-0.899,4.758-3.075l12.318-26.314c0,0,2.012-3.96,2.012-5.035h0.489L221.838,159.414z M213.289,149.631
			l-6.547-15.695l-6.832,15.695H213.289z"/>
		<path display="inline" fill="#FFFFFF" d="M247.166,128.754c6.945,0,11.201,3.586,11.201,9.442c0,7.454-8.986,11.424-15.801,8.19
			l-0.006-0.463c0,0,8.936,1.736,11.387-5.271c0.241-0.687,0.38-1.867,0.348-2.95c-0.136-4.489-2.704-7.484-7.323-7.484h-6.262
			v29.201c0.036,1.703,1.579,3.074,3.479,3.074h0.687l0.009,0.488h-11.891l0.009-0.488h0.687c1.901,0,3.443-1.371,3.481-3.074
			v-27.365c-0.176-1.581-1.658-2.817-3.463-2.817h-0.687l-0.008-0.485L247.166,128.754z"/>
		<path display="inline" fill="#FFFFFF" d="M307.459,145.864c0,10.682-7.973,17.802-19.522,17.802
			c-11.551,0-19.523-7.12-19.523-17.802c0-10.68,7.972-17.797,19.523-17.797C299.486,128.067,307.459,135.185,307.459,145.864z
			 M303.296,145.867c0-9.804-6.144-16.336-15.359-16.336s-15.359,6.532-15.359,16.336c0,9.804,6.144,16.335,15.359,16.335
			S303.296,155.671,303.296,145.867z"/>
		<path display="inline" fill="#FFFFFF" d="M341.253,155.085l-3.165,7.896H315.57l0.008-0.488h0.687
			c1.902,0,3.445-1.371,3.479-3.074v-27.103c-0.036-1.703-1.578-3.074-3.48-3.074h-0.687l-0.009-0.488h11.883l-0.008,0.488h-0.688
			c-1.899,0-3.441,1.371-3.479,3.074v29.169h7.791c5.755,0,7.965-2.679,9.642-6.4H341.253z"/>
		<path display="inline" fill="#FFFFFF" d="M387.862,145.864c0,10.682-7.972,17.802-19.524,17.802
			c-11.55,0-19.522-7.12-19.522-17.802c0-10.68,7.973-17.797,19.522-17.797C379.891,128.067,387.862,135.185,387.862,145.864z
			 M383.699,145.867c0-9.804-6.146-16.336-15.361-16.336c-9.214,0-15.357,6.532-15.357,16.336c0,9.804,6.144,16.335,15.357,16.335
			C377.554,162.202,383.699,155.671,383.699,145.867z"/>
		<path display="inline" fill="#FFFFFF" d="M413.777,148.562c2.171,1.805,2.728,3.985,2.728,5.963c0,5.406-3.924,9.142-10.172,9.142
			c-2.66,0-7.062-0.685-9.195-2.671c-0.404-1.51-0.2-4.624,0.627-6.815h0.478c-0.545,5.038,2.998,8.261,7.834,8.02
			c3.965-0.199,7.277-2.645,7.277-6.553c0-1.909-0.772-3.423-2.131-4.556l-10.404-8.703c-2.197-1.804-2.944-4.166-2.944-6.057
			c0-4.123,3.353-8.264,9.547-8.264c1.425,0,3.215,0.217,4.658,0.501h2.151v0.581v5.418h-0.522c0.014-3.128-2.727-5.033-6.112-5.033
			c-4.003,0-6.68,2.642-6.68,5.622c0,1.276,0.476,3.08,2.187,4.507L413.777,148.562z"/>
		<path display="inline" fill="#FFFFFF" d="M476.771,128.751v0.491h-0.478c-1.658,0-3.932,0.87-4.766,3.029l-8.994,25.863
			c0,0-1.104,3.106-1.188,5.434h-0.512l-11.108-27.962l-8.23,22.528c0,0-1.048,3.03-1.138,5.434h-0.512l-12.327-31.347
			c-0.902-2.123-3.099-2.982-4.762-2.982h-0.436v-0.488h12.073v0.485h-0.478c-1.391,0-2.762,1.082-2.123,3.003l8.218,23.802
			l10.113-28.055l0.507,0.016l10.711,27.05l7.274-22.901c0.54-1.875-0.625-2.915-2.104-2.915h-0.478v-0.485H476.771z"/>
		<path display="inline" fill="#FFFFFF" d="M508.9,159.414c1.098,2.175,3.107,3.077,4.771,3.077h0.454v0.49h-12.23v-0.485h0.478
			c1.401,0,2.856-1.111,2.063-3.069l-3.474-8.328h-14.631l-3.639,8.357c-0.767,1.939,0.681,3.04,2.076,3.04h0.478v0.485h-10.934
			v-0.49h0.488c1.652,0,3.66-0.899,4.759-3.075l12.319-26.314c0,0,2.011-3.96,2.011-5.035h0.489L508.9,159.414z M500.349,149.631
			l-6.547-15.695l-6.833,15.695H500.349z"/>
		<path display="inline" fill="#FFFFFF" d="M534.229,128.754c6.944,0,11.201,3.586,11.201,9.442c0,7.454-8.986,11.424-15.803,8.19
			l-0.005-0.463c0,0,8.935,1.736,11.387-5.271c0.241-0.687,0.381-1.867,0.348-2.95c-0.137-4.489-2.703-7.484-7.323-7.484h-6.263
			v29.201c0.037,1.703,1.578,3.074,3.48,3.074h0.687l0.008,0.488h-11.889l0.008-0.488h0.687c1.902,0,3.443-1.371,3.481-3.074
			v-27.365c-0.176-1.581-1.657-2.817-3.463-2.817h-0.687l-0.009-0.485L534.229,128.754z"/>
	</g>
	<path fill="#FFFFFF" d="M404.657,161.225c-2.702,0-7.997-0.67-10.694-3.182l-0.227-0.211l-0.079-0.298
		c-0.532-1.986-0.213-5.593,0.711-8.042l0.263-0.695h2.458l-0.129,1.19c-0.232,2.15,0.288,4.003,1.506,5.357
		c1.246,1.39,3.152,2.154,5.366,2.154c0.162,0,0.326-0.004,0.493-0.013c3.305-0.166,6.862-2.122,6.862-6.025
		c0-1.688-0.628-3.031-1.922-4.11l-11.273-9.428c-2.269-1.862-3.574-4.557-3.574-7.385c0-4.861,4.001-10.028,11.418-10.028
		c1.468,0,3.387,0.203,5.15,0.543h3.302v8.648h-2.721l0.005-1.08c0.005-1.103-0.372-2.042-1.119-2.793
		c-1-1.004-2.613-1.58-4.428-1.58c-3.513,0-6.162,2.156-6.162,5.016c0,0.722,0.193,2.564,1.982,4.057l11.565,9.638
		c2.216,1.844,3.341,4.295,3.341,7.285C416.752,156.813,411.892,161.225,404.657,161.225z M363.493,161.225
		c-13.294,0-22.226-8.183-22.226-20.361c0-12.174,8.932-20.354,22.226-20.354c13.295,0,22.228,8.181,22.228,20.354
		C385.721,153.042,376.788,161.225,363.493,161.225z M363.493,124.246c-9.454,0-15.563,6.525-15.563,16.622
		c0,10.096,6.108,16.621,15.563,16.621c9.457,0,15.567-6.524,15.567-16.621C379.061,130.771,372.95,124.246,363.493,124.246z
		 M276.388,161.225c-13.294,0-22.226-8.183-22.226-20.361c0-12.174,8.932-20.354,22.226-20.354c13.293,0,22.225,8.181,22.225,20.354
		C298.613,153.042,289.682,161.225,276.388,161.225z M276.388,124.246c-9.456,0-15.565,6.525-15.565,16.622
		c0,10.096,6.109,16.621,15.565,16.621c9.455,0,15.565-6.524,15.565-16.621C291.953,130.771,285.843,124.246,276.388,124.246z
		 M462.973,161.118L451.71,132.77l-7.949,21.756c-0.005,0.013-1.078,3.148-1.168,5.558l-0.038,1.034h-2.322l-13.623-34.64
		c-0.746-1.752-2.629-2.549-4.159-2.549h-1.547v-2.679h15.23v2.676h-1.593c-0.508,0-0.971,0.205-1.209,0.535
		c-0.229,0.318-0.253,0.757-0.071,1.304l7.905,22.893l10.188-28.259l2.036,0.063l10.753,27.155l6.968-21.933
		c0.106-0.37,0.184-0.924-0.099-1.3c-0.22-0.291-0.641-0.458-1.155-0.458h-1.593v-2.676h13.78v2.682h-1.592
		c-1.521,0-3.473,0.812-4.16,2.594l-9.731,27.984c-0.014,0.038-1.146,3.25-1.229,5.572l-0.037,1.035H462.973z M526.772,160.482
		l0.042-2.679h1.802c1.459,0,2.669-1.022,2.696-2.279V125.97c-0.159-1.15-1.323-2.043-2.676-2.043h-1.8l-0.048-2.676l16.429,0.003
		c8.148,0,13.21,4.332,13.21,11.304c0,6.995-6.436,11.174-12.657,11.174c-2.086,0-4.161-0.461-5.999-1.333l-0.476-0.226v13.374
		c0.027,1.234,1.237,2.256,2.696,2.256h1.802l0.042,2.679H526.772z M538.43,139.872c0.011,0.002,0.996,0.187,2.378,0.187
		c3.158,0,7.237-0.901,8.741-5.195c0.218-0.622,0.348-1.776,0.317-2.808c-0.138-4.491-2.638-7.066-6.86-7.066h-5.71v14.665
		L538.43,139.872z M507.112,160.482v-2.676h1.593c0.526,0,1.017-0.222,1.247-0.564c0.212-0.314,0.209-0.746-0.009-1.282
		l-3.482-8.351H492.03l-3.661,8.408c-0.194,0.493-0.192,0.918,0.018,1.228c0.231,0.342,0.722,0.562,1.246,0.562h1.593v2.676H477.23
		v-2.681h1.604c1.359,0,3.177-0.721,4.196-2.741l13.333-28.477c0.997-1.967,2.061-4.426,2.076-5.001l0.03-1.044l1.045-0.029h1.217
		l16.021,34.582c1.005,1.99,2.828,2.711,4.192,2.711h1.567v2.681H507.112z M504.899,143.869l-5.501-13.186l-5.742,13.186H504.899z
		 M305.233,160.482l0.043-2.679h1.802c1.461,0,2.669-1.021,2.694-2.276v-29.339c-0.026-1.234-1.235-2.256-2.695-2.256h-1.8
		l-0.048-2.679h15.06l-0.042,2.679h-1.805c-1.457,0-2.666,1.022-2.693,2.279v30.5h7.366c5.543,0,7.667-2.311,9.466-6.3l0.284-0.634
		h2.874l-4.292,10.704H305.233z M215.767,160.482l0.051-2.679h1.799c1.459,0,2.669-1.022,2.697-2.279l0-29.555
		c-0.16-1.15-1.323-2.043-2.677-2.043h-1.802l-0.043-2.676l16.425,0.003c8.148,0,13.21,4.332,13.21,11.304
		c0,6.995-6.436,11.174-12.656,11.174c-2.086,0-4.16-0.461-5.999-1.333l-0.476-0.227v13.375c0.026,1.234,1.235,2.256,2.694,2.256
		h1.799l0.051,2.679H215.767z M227.43,139.872c0.009,0.002,0.995,0.187,2.377,0.187c3.158,0,7.238-0.901,8.741-5.195
		c0.218-0.621,0.348-1.775,0.316-2.808c-0.136-4.49-2.636-7.065-6.859-7.065h-5.709v14.666L227.43,139.872z M196.114,160.482v-2.676
		h1.592c0.526,0,1.017-0.221,1.248-0.564c0.211-0.314,0.209-0.745-0.008-1.282l-3.484-8.351h-14.429l-3.661,8.408
		c-0.195,0.493-0.194,0.918,0.017,1.228c0.232,0.342,0.721,0.562,1.246,0.562h1.592v2.676h-13.994v-2.681h1.604
		c1.359,0,3.175-0.721,4.195-2.741l13.332-28.477c0.998-1.967,2.062-4.426,2.078-5.001l0.03-1.044l1.045-0.029h1.217l16.02,34.582
		c1.005,1.99,2.829,2.711,4.195,2.711h1.566v2.681H196.114z M193.902,143.869l-5.501-13.185l-5.74,13.185H193.902z"/>
	<path fill-rule="evenodd" clip-rule="evenodd" fill="#F9AD01" d="M40.776,81.274c-4.828,0.542-10.369-9.127-4.739-14.563
		C33.302,69.965,35.36,78.875,40.776,81.274 M39.987,119.232c-6.92,9.994-15.884,31.942-16.392,42.449
		c-0.403,8.251,1.933,18.322,12.448,27.768c-4.77-5.258-8.45-12.91-9.675-19.366C23.59,155.431,33.286,132.542,39.987,119.232z
		 M111.495,75.119c1.799-4.173,3.129-6.885,7.71-9.645c3.905-2.344,8.241-2.313,11.052-0.694
		C123.336,64.008,116.006,66.93,111.495,75.119z M125.046,126.591c3.598,11.384,12.916,34.431,3.448,49.191
		c-4.423,6.906-9.383,9.327-14.58,11.184c-3.245,1.152,2.128,1.895,4.485,1.367c4.633-1.044,10.772-8.435,12.019-10.891
		C134.503,169.441,138.217,154.303,125.046,126.591z M109.909,217.229c-5.769,1.565-14.647,2.572-24.579,2.572
		s-18.809-1.007-24.573-2.572C76.238,218.867,94.434,218.867,109.909,217.229z M69.27,205.93c-0.063-1.596-0.104-6.842-0.135-8.683
		h-1.017c0.213,3.521,0.515,9.227,0.854,9.227C69.072,206.474,69.176,206.285,69.27,205.93z M76.781,205.868
		c-0.062-1.574-0.104-6.801-0.14-8.621h-1.012c0.208,3.521,0.517,9.227,0.851,9.227C76.578,206.474,76.682,206.266,76.781,205.868z
		 M84.292,205.822c-0.063-1.561-0.104-6.765-0.14-8.575H83.14c0.214,3.532,0.517,9.227,0.846,9.227
		C84.089,206.474,84.194,206.254,84.292,205.822z M91.788,205.868c-0.063-1.574-0.105-6.801-0.141-8.621h-1.018
		c0.219,3.521,0.527,9.227,0.856,9.227C91.59,206.474,91.694,206.266,91.788,205.868z M99.284,205.921
		c-0.058-1.591-0.104-6.833-0.136-8.674h-1.022c0.214,3.521,0.527,9.227,0.861,9.227C99.091,206.474,99.19,206.285,99.284,205.921z
		 M91.59,190.909v-89.835c0.804,0.094,1.607,0.208,2.394,0.339v69.186h3.808v13.973c0,2.228,0.03,4.367,0.079,6.338H91.59z
		 M84.089,190.909c0-0.156,0-0.312,0-0.469v-89.679c0.798-0.021,1.596-0.032,2.388-0.021v69.858h3.81v13.42
		c0,2.427,0.036,4.759,0.088,6.891H84.089z M76.589,190.909v-89.35c0.792-0.146,1.59-0.271,2.388-0.375v69.415h3.808v12.853
		c0,2.639,0.036,5.164,0.088,7.458H76.589z M69.083,190.909v-87.342c0.793-0.286,1.59-0.553,2.394-0.787v67.818h3.808v13.42
		c0,2.427,0.03,4.759,0.083,6.891H69.083z M63.7,103.995c-2.556,1.32-4.946,2.901-7.119,4.752c-2.237,1.909-3.109,2.332-4.073,5.023
		c-4.828,13.484-12.487,33.31-11.737,47.952c0.905,17.53,18.201,24.848,22.656,17.879c0.996-1.589,1.122-3.422,0.981-5.311H63.7
		h-0.961c-2.013,0-1.131-0.14-1.131,1.42c0,2.159-2.206,3.275-4.172,2.884c-1.544-0.317-2.494-1.673-2.682-3.02
		c-0.412-2.931,1.896-4.976,5.467-4.976H63.7h0.887h3.191v13.973c0,2.228,0.032,4.367,0.079,6.338h-1.57
		c-0.85,0-1.731,0.115-2.55,0.329c-1.132,0.298-2.039,0.777-2.561,1.366c0.703-0.317,1.564-0.553,2.525-0.678
		c0.489-0.073,1.053-0.109,1.539-0.109h40.185c1.319,0,2.91,0.26,4.062,0.787c-1.1-1.24-3.463-1.695-5.111-1.695h-5.279v-88.354
		c0.808,0.229,1.606,0.485,2.394,0.751v67.292h4.586h0.88h3.49c3.563,0,5.874,2.045,5.461,4.976
		c-0.188,1.347-1.137,2.707-2.681,3.02c-1.962,0.396-4.173-0.725-4.173-2.884c0-1.56,0.88-1.42-1.132-1.42h-0.965h-0.703
		c-0.194,1.707-0.026,3.584,0.839,5.087c4.32,7.507,22.627-0.256,22.832-18.782c0.161-14.521-6.949-33.352-11.763-46.783
		c-1.022-2.848-2.05-3.213-4.47-5.185c-2.316-1.889-4.888-3.495-7.615-4.82v-0.25c-12.89-6.233-29.624-5.895-42.376,0.688V103.995z
		 M51.935,214.261c0.581-16.582-33.047-20.775-31.165-52.455c1.625-27.323,38.192-71.096,29.785-82.666
		c-1.693-2.331-1.725-0.203-2.791,1.096c-3.67,4.46-11.179,3.161-13.943-1.81C29.575,70.8,34.1,64.963,40.099,62.749
		c9.688-3.575,18.901,4.218,21.09,13.575c1.581,6.77,0.298,11.012-1.772,17.579c-0.172,0.548-0.355,1.111-0.542,1.664
		c0.417-0.062,0.84-0.083,1.242-0.198c1.199-0.319,2.388-0.606,3.583-0.877V94.46c1.799-0.407,3.588-0.772,5.383-1.075V62.788
		c0-2.05-1.57-1.889-1.57-3.866c0-1.268,1.189-6.244,2.65-6.244s2.65,4.783,2.65,6.244c0,1.69-1.335,1.925-1.335,3.792V93.01
		c1.7-0.251,3.405-0.448,5.112-0.605V57.504c0-2.042-1.424-2.089-1.424-3.951c0-1.237,1.19-6.239,2.65-6.239
		c1.46,0,2.648,4.781,2.648,6.239c0,1.81-1.486,1.869-1.486,3.81v34.854c1.706-0.109,3.407-0.177,5.112-0.198V52.995
		c0-2.005-1.408-2.058-1.408-3.904c0-1.236,1.189-6.244,2.649-6.244c1.456,0,2.65,4.783,2.65,6.244c0,1.831-1.503,1.901-1.503,3.904
		v39.024c1.708,0.021,3.413,0.094,5.113,0.209V57.22c0-1.864-1.393-1.844-1.393-3.667c0-1.229,1.191-6.239,2.645-6.239
		c1.461,0,2.656,4.984,2.656,6.239c0,1.912-1.514,1.773-1.514,3.667v35.196c1.707,0.156,3.413,0.354,5.112,0.605V62.714
		c0-1.88-1.251-2.075-1.251-3.792c0-1.202,1.189-6.244,2.649-6.244c1.46,0,2.65,4.783,2.65,6.244c0,1.957-1.655,1.823-1.655,3.866
		v30.608c1.524,0.261,3.052,0.574,4.586,0.908v-0.042c1.632,0.349,3.265,0.74,4.893,1.178c0.266,0.069,6.754,1.242,7.026,1.289
		c-0.188-0.553-6.583-2.274-6.755-2.822c-2.071-6.572-3.348-10.813-1.769-17.583c2.186-9.357,11.408-17.15,21.09-13.575
		c5.999,2.215,10.527,8.052,6.28,15.677c-2.765,4.971-10.276,6.27-13.943,1.81c-1.07-1.299-1.101-3.426-2.791-1.096
		c-8.408,11.569,28.158,55.342,29.779,82.666c1.889,31.68-31.75,35.873-31.162,52.461c0.527-1.128,1.104-2.119,1.758-2.984
		c3.76,1.324,9.337-0.089,8.972,4.193c-0.34,4.074-0.73,8.732,0.338,12.842c-5.164,10.911-83.766,10.839-88.924,0
		c1.597-4.345,1.167-9.3,0.469-13.53c-0.542-3.275,5.781-2.425,8.838-3.505C50.834,212.147,51.405,213.139,51.935,214.261z"/>
	
		<text transform="matrix(1 0 0 1 154.1563 158.4072)" display="none" fill="#FFFFFF" font-family="'PRIMETIME-Regular'" font-size="54.5849">APOLOSWAP</text>
</g>
</svg>
