<?xml version="1.0" encoding="utf-8"?>
<!-- Generator: Adobe Illustrator 16.0.0, SVG Export Plug-In . SVG Version: 6.00 Build 0)  -->
<!DOCTYPE svg PUBLIC "-//W3C//DTD SVG 1.1//EN" "http://www.w3.org/Graphics/SVG/1.1/DTD/svg11.dtd">
<svg version="1.1" id="Capa_1" xmlns="http://www.w3.org/2000/svg" xmlns:xlink="http://www.w3.org/1999/xlink" x="0px" y="0px"
	 width="700px" height="700px" viewBox="0 0 700 700" enable-background="new 0 0 700 700" xml:space="preserve">
<circle fill="#FFFFFF" cx="350" cy="350" r="350"/>
<path d="M488.3,126.41c18.414,0,33.381-15.22,33.381-33.917c0-18.707-14.967-33.914-33.381-33.914
	c-18.466,0.083-33.435,15.307-33.435,34C454.865,111.272,469.834,126.41,488.3,126.41z M498.145,214.564
	c15.646,0,28.291-12.843,28.291-28.737c0-15.798-12.645-28.72-28.291-28.72c-15.666,0-28.311,12.82-28.311,28.72
	C469.834,201.722,482.479,214.564,498.145,214.564z M575.835,225.79c15.575,0,28.208-12.84,28.208-28.642
	c0-15.829-12.633-28.664-28.208-28.664c-15.559,0-28.234,12.835-28.234,28.664C547.601,212.95,560.276,225.79,575.835,225.79z
	 M566.509,301.188c13.344,0,24.133-10.967,24.133-24.477c0-13.494-10.789-24.476-24.133-24.476
	c-13.355,0-24.163,10.982-24.163,24.476C542.346,290.221,553.153,301.188,566.509,301.188z M628.698,325.66
	c13.444,0,24.325-11.045,24.325-24.641c0-13.624-10.881-24.66-24.325-24.66c-13.403,0-24.306,11.037-24.306,24.66
	C604.393,314.615,615.295,325.66,628.698,325.66z M488.317,290.994c13.688,0,24.773-11.209,24.773-25.067
	c0-13.859-11.085-25.081-24.773-25.081c-13.683,0-24.716,11.222-24.716,25.081C463.602,279.689,474.635,290.994,488.317,290.994z
	 M465.903,351.015c11.487,0,20.756-9.448,20.756-21.005c0-11.646-9.269-20.994-20.756-20.994c-11.463,0-20.698,9.437-20.698,20.994
	C445.205,341.566,454.44,351.015,465.903,351.015L465.903,351.015z M543.71,361.628c11.369,0,20.573-9.377,20.573-20.922
	c0-11.558-9.204-20.917-20.573-20.917c-11.412,0-20.576,9.359-20.576,20.917C523.064,352.251,532.298,361.628,543.71,361.628z
	 M605.754,385.983c11.434,0,20.725-9.438,20.725-21.09c0-11.631-9.291-21.078-20.725-21.078c-11.522,0-20.757,9.447-20.757,21.078
	C584.997,376.546,594.231,385.983,605.754,385.983z M575.083,431.495c9.706,0,17.513-7.984,17.513-17.789
	c0-9.745-7.807-17.752-17.513-17.752c-9.689,0-17.509,8.007-17.509,17.752C557.574,423.511,565.394,431.495,575.083,431.495z
	 M512.779,407.528c9.858,0,17.952-8.146,17.952-18.19c0-10.043-8.03-18.212-17.952-18.212c-9.972,0-17.918,8.169-17.918,18.212
	C494.861,399.382,502.933,407.528,512.779,407.528z M435.116,396.433c9.722,0,17.757-8.09,17.757-18.029
	c0-9.961-7.924-18.024-17.757-18.024c-9.801,0-17.82,8.063-17.82,18.024C417.296,388.343,425.213,396.433,435.116,396.433z
	 M478.29,439.195c8.536,0,15.447-7.06,15.447-15.681c0-8.676-6.911-15.62-15.447-15.62c-8.625,0-15.532,7.075-15.532,15.62
	C462.758,432.19,469.665,439.195,478.29,439.195z M540.556,463.563c8.59,0,15.652-7.078,15.652-15.814
	c0-8.791-6.967-15.814-15.652-15.814c-8.592,0-15.61,7.023-15.61,15.814C524.997,456.485,531.964,463.563,540.556,463.563z
	 M505.479,481.849c6.767,0,12.33-5.619,12.33-12.498c0-6.91-5.563-12.503-12.33-12.503c-6.8,0-12.331,5.593-12.331,12.503
	C493.232,476.229,498.679,481.849,505.479,481.849z M472.24,491.648c6.219,0,11.104-5.081,11.104-11.299
	c0-6.28-4.996-11.31-11.104-11.31c-6.226,0-11.109,5.086-11.109,11.31C460.986,486.624,466.015,491.648,472.24,491.648z
	 M443.122,459.124c7.329,0,13.29-6.01,13.29-13.422c0-7.391-5.961-13.4-13.29-13.4c-7.301,0-13.253,6.01-13.253,13.4
	C429.869,453.114,435.821,459.124,443.122,459.124z M400.396,428.332c8.515,0,15.481-7.005,15.481-15.661
	c0-8.682-6.909-15.648-15.481-15.648c-8.528,0-15.5,6.967-15.5,15.648C385.036,421.327,391.868,428.332,400.396,428.332z
	 M527.117,624.212c18.361,0,33.22-15.126,33.22-33.771c0-18.595-14.858-33.734-33.22-33.734c-18.411,0-33.269,15.14-33.269,33.734
	C493.849,609.086,508.706,624.212,527.117,624.212z M442.619,581.479c15.307,0,27.693-12.563,27.693-28.15
	c0-15.559-12.387-28.133-27.693-28.133c-15.312,0-27.698,12.574-27.698,28.133C414.921,568.916,427.308,581.479,442.619,581.479z
	 M394.34,643.297c15.528,0,28.025-12.638,28.025-28.373c0-15.638-12.497-28.384-28.025-28.384
	c-15.453,0-27.951,12.637-27.951,28.384C366.389,630.548,378.887,643.297,394.34,643.297z M379.865,529.377
	c13.376,0,24.216-10.958,24.216-24.553c0-13.593-10.84-24.577-24.216-24.577c-13.365,0-24.205,10.984-24.205,24.577
	C355.66,518.364,366.5,529.377,379.865,529.377z M331.723,592.037c13.329,0,24.127-10.956,24.127-24.491
	c0-13.516-10.798-24.467-24.127-24.467c-13.368,0-24.152,10.951-24.152,24.467C307.469,581.081,318.355,592.037,331.723,592.037z
	 M279.838,634.616c13.337,0,24.037-10.984,24.037-24.411c0-13.505-10.785-24.388-24.037-24.388
	c-13.362,0-24.062,10.955-24.062,24.388C255.776,623.632,266.577,634.616,279.838,634.616z M236.646,579.231
	c11.322,0,20.575-9.373,20.575-20.816c0-11.514-9.17-20.838-20.575-20.838c-11.304,0-20.572,9.324-20.572,20.838
	C216.172,569.858,225.342,579.231,236.646,579.231z M288.626,536.526c11.388,0,20.561-9.373,20.561-20.85
	c0-11.556-9.173-20.842-20.561-20.842c-11.381,0-20.575,9.373-20.575,20.842C268.051,527.153,277.245,536.526,288.626,536.526z
	 M337.13,473.813c11.404,0,20.576-9.298,20.576-20.867c0-11.574-9.171-20.955-20.576-20.955c-11.402,0-20.574,9.381-20.574,20.955
	C316.556,464.516,325.728,473.813,337.13,473.813z M262.938,482.493c9.859,0,17.851-8.09,17.851-18.117
	c0-10.031-7.991-18.085-17.851-18.085c-9.846,0-17.836,8.054-17.836,18.085C245.102,474.403,253.092,482.493,262.938,482.493z
	 M211.242,525.017c9.765,0,17.676-7.952,17.676-17.916c0-9.971-7.912-17.951-17.676-17.951c-9.783,0-17.692,7.98-17.692,17.951
	C193.55,517.064,201.459,525.017,211.242,525.017z M199.335,475.145c8.424,0,15.307-6.974,15.307-15.487
	c0-8.543-6.882-15.447-15.307-15.447c-8.415,0-15.292,6.967-15.292,15.447C184.042,468.282,190.92,475.145,199.335,475.145z
	 M198.913,431.395c7.231,0,13.09-5.948,13.09-13.36c0-7.334-5.858-13.344-13.09-13.344c-7.22,0-13.09,5.955-13.09,13.344
	C185.823,425.446,191.693,431.395,198.913,431.395z M206.117,395.004c6.211,0,11.137-5.114,11.137-11.292
	c0-6.209-5.013-11.352-11.137-11.352c-6.193,0-11.134,5.143-11.134,11.352C194.983,389.89,199.923,395.004,206.117,395.004z
	 M250.706,388.929c7.318,0,13.257-6.063,13.257-13.418c0-7.425-5.938-13.455-13.257-13.455c-7.317,0-13.271,6.031-13.271,13.455
	C237.434,382.866,243.388,388.929,250.706,388.929z M299.634,369.835c8.495,0,15.477-7.041,15.477-15.615
	c0-8.684-6.895-15.658-15.477-15.658c-8.497,0-15.479,7.047-15.479,15.658C284.156,362.868,291.055,369.835,299.634,369.835z
	 M311.277,419.493c9.703,0,17.61-8.002,17.61-17.863c0-9.859-7.907-17.861-17.61-17.861c-9.692,0-17.597,8.002-17.597,17.861
	C293.68,411.491,301.511,419.493,311.277,419.493z M251.321,432.717c8.499,0,15.287-7.005,15.287-15.583
	c0-8.592-6.884-15.559-15.287-15.559c-8.521,0-15.306,6.967-15.306,15.559C235.932,425.712,242.799,432.717,251.321,432.717z
	 M82.173,409.66c18.267,0,33.163-15.052,33.163-33.614c0-18.543-14.896-33.57-33.163-33.57c-18.279,0-33.15,15.027-33.15,33.57
	C49.023,394.608,63.895,409.66,82.173,409.66z M157.426,349.658c15.722,0,28.396-12.922,28.396-28.823
	c0-15.893-12.747-28.814-28.396-28.814c-15.728,0-28.396,12.922-28.396,28.814C129.03,336.816,141.795,349.658,157.426,349.658z
	 M128.056,275.715c15.648,0,28.225-12.838,28.225-28.658c0-15.814-12.661-28.637-28.225-28.637
	c-15.641,0-28.219,12.822-28.219,28.637C99.761,262.876,112.416,275.715,128.056,275.715L128.056,275.715z M200.601,240.677
	c13.351,0,24.235-10.967,24.235-24.565c0-13.595-10.884-24.559-24.235-24.559c-13.332,0-24.216,10.964-24.216,24.559
	C176.385,229.71,187.27,240.677,200.601,240.677z M230.23,314.435c13.453,0,24.33-11.042,24.33-24.645
	c0-13.597-10.877-24.652-24.33-24.652c-13.413,0-24.297,11.056-24.297,24.652C205.933,303.393,216.817,314.435,230.23,314.435z
	 M296.262,299.123c11.391,0,20.671-9.337,20.671-20.994c0-11.556-9.28-20.992-20.671-20.992c-11.374,0-20.644,9.353-20.644,20.992
	C275.536,289.687,284.794,299.123,296.262,299.123z M353.301,299.307c9.858,0,17.852-8.073,17.852-18.014
	c0-9.945-7.993-18.02-17.852-18.02c-9.877,0-17.87,8.074-17.87,18.02C335.518,291.233,343.52,299.307,353.301,299.307z
	 M400.431,310.162c8.258,0,15.026-6.783,15.026-15.223c0-8.396-6.711-15.207-15.026-15.207c-8.258,0-15.056,6.811-15.056,15.207
	C385.429,303.28,392.173,310.162,400.431,310.162z M406.552,254.627c7.219,0,13.088-5.942,13.088-13.237
	c0-7.316-5.869-13.267-13.088-13.267c-7.229,0-13.088,5.95-13.088,13.267C393.464,248.686,399.322,254.627,406.552,254.627z
	 M370.349,236.465c8.315,0,15.08-6.872,15.08-15.39c0-8.498-6.765-15.37-15.08-15.37c-8.363,0-15.167,6.872-15.167,15.37
	C355.182,229.593,361.893,236.465,370.349,236.465z M323.728,225.465c9.796,0,17.688-8.086,17.688-17.947
	c0-9.95-7.892-17.943-17.688-17.943c-9.771,0-17.662,8.075-17.662,17.943C306.066,217.458,313.958,225.465,323.728,225.465z
	 M266.802,225.526c11.484,0,20.767-9.437,20.767-20.993c0-11.573-9.283-21.009-20.767-21.009c-11.462,0-20.731,9.437-20.731,21.009
	C246.156,216.172,255.425,225.526,266.802,225.526z M190.139,173.024c13.013,0,23.462-10.638,23.462-23.813
	c0-13.175-10.531-23.803-23.462-23.803c-13.006,0-23.458,10.628-23.458,23.803C166.681,162.387,177.217,173.024,190.139,173.024z
	 M256.126,158.591c11.473,0,20.741-9.437,20.741-20.992c0-11.573-9.269-21.008-20.741-21.008s-20.729,9.436-20.729,21.008
	C235.397,149.154,244.654,158.591,256.126,158.591z M313.145,158.869c9.851,0,17.838-8.083,17.838-18.115
	c0-10.03-7.987-18.102-17.838-18.102c-9.86,0-17.849,8.072-17.849,18.102C295.295,150.701,303.285,158.869,313.145,158.869
	L313.145,158.869z M359.9,169.631c8.347,0,15.056-6.805,15.056-15.208c0-8.418-6.709-15.223-15.056-15.223
	c-8.315,0-15.032,6.804-15.032,15.223C344.869,162.752,351.664,169.631,359.9,169.631z M395.881,188.31
	c7.388,0,13.397-6.133,13.397-13.615c0-7.559-6.01-13.604-13.397-13.604c-7.445,0-13.455,6.125-13.455,13.604
	C382.426,182.177,388.436,188.31,395.881,188.31z M422.245,209.71c6.077,0,11.019-5.017,11.019-11.232
	c0-6.197-4.941-11.212-11.019-11.212c-6.145,0-11.086,5.015-11.086,11.212C411.105,204.693,416.101,209.71,422.245,209.71z"/>
</svg>
