<?xml version="1.0" encoding="utf-8"?>
<!-- Generator: Adobe Illustrator 16.0.0, SVG Export Plug-In . SVG Version: 6.00 Build 0)  -->
<!DOCTYPE svg PUBLIC "-//W3C//DTD SVG 1.1//EN" "http://www.w3.org/Graphics/SVG/1.1/DTD/svg11.dtd">
<svg version="1.1" id="Capa_1" xmlns="http://www.w3.org/2000/svg" xmlns:xlink="http://www.w3.org/1999/xlink" x="0px" y="0px"
	 width="700px" height="700px" viewBox="0 0 700 700" enable-background="new 0 0 700 700" xml:space="preserve">
<circle fill="#FFFFFF" cx="350" cy="350" r="350"/>
<path fill="#1E1E1E" d="M348.507,99c-104.435,0.42-188.993,84.979-189.413,189.413c0,20.915,3.376,41.689,9.988,61.526
	c4.935,13.504,19.576,20.774,33.32,16.6c13.284-5.094,20.335-19.616,16.101-33.2c-5.613-15.461-8.11-31.861-7.371-48.282
	c2.277-75.429,65.262-134.738,140.691-132.461c75.429,2.277,134.737,65.262,132.46,140.691
	c-2.137,70.615-57.75,127.967-128.285,132.262c0,0-26.589,1.617-39.813,3.235c-4.874,0.699-9.708,1.658-14.482,2.877
	c-0.68,0.699-1.778,0.699-2.478,0.02l-0.02-0.02c-0.479-0.619-0.479-1.498,0-2.117l4.115-22.453l24.97-112.306
	c2.996-14.023-5.933-27.826-19.956-30.823c-14.023-2.996-27.826,5.934-30.823,19.956c0,0-59.389,274.891-59.389,277.388
	c-3.396,13.364,4.675,26.947,18.038,30.344c0.141,0.04,0.3,0.08,0.439,0.1h1.379c13.344,3.456,26.968-4.574,30.403-17.918
	c0.06-0.22,0.12-0.439,0.16-0.68c-0.04-0.419-0.04-0.839,0-1.238c0.739-3.236,8.229-39.813,8.229-39.813
	c5.674-27.606,27.927-48.762,55.773-53.036c5.733-0.879,29.824-2.497,29.824-2.497c104.035-10.368,179.964-103.116,169.576-207.151
	C522.478,174.529,443.872,101.478,348.507,99z"/>
<path fill="#E6007A" d="M359.993,535.736c-17.08-3.556-33.779,7.411-37.335,24.471c-0.04,0.16-0.061,0.319-0.101,0.479
	c-3.695,16.96,7.052,33.72,24.031,37.415c0.021,0,0.04,0,0.061,0.02h0.879c16.62,4.016,33.34-6.212,37.335-22.813
	c0.04-0.119,0.06-0.26,0.1-0.379v-1.738C387.899,556.052,376.952,539.611,359.993,535.736z"/>
</svg>
