<?xml version="1.0" encoding="utf-8"?>
<!-- Generator: Adobe Illustrator 16.0.0, SVG Export Plug-In . SVG Version: 6.00 Build 0)  -->
<!DOCTYPE svg PUBLIC "-//W3C//DTD SVG 1.1//EN" "http://www.w3.org/Graphics/SVG/1.1/DTD/svg11.dtd">
<svg version="1.1" id="Capa_1" xmlns="http://www.w3.org/2000/svg" xmlns:xlink="http://www.w3.org/1999/xlink" x="0px" y="0px"
	 width="700px" height="700px" viewBox="0 0 700 700" enable-background="new 0 0 700 700" xml:space="preserve">
<circle fill="#FFFFFF" cx="350" cy="350" r="350"/>
<g id="Layer_2">
	<g id="Layer_1-2">
		<path d="M550.16,177.629l-66.797,34.022L160.624,376.057c-1.084-8.373-1.626-16.723-1.626-25.146
			c0.137-106.155,86.32-192.124,192.476-191.975c32.785,0.011,64.873,8.411,93.547,24.39l38.195-19.509l5.726-2.896
			c-104.988-76.183-251.808-52.849-327.991,52.122c-29.068,40.106-44.77,88.408-44.77,137.957c0,5.984,0.261,11.939,0.691,17.865
			c1.286,17.137-7.846,33.42-23.185,41.303L73.5,420.449v47.903l59.393-30.245l0,0l19.228-9.831l18.944-9.623l0,0l340.148-173.313
			l38.302-19.467l78.984-40.298v-47.944L550.16,177.629z"/>
		<path d="M628.5,233.578L190.413,456.659l-38.232,19.514L73.5,516.248v47.941l78.141-39.818l66.799-34.021l323.046-164.631
			c1.084,8.372,1.668,16.821,1.668,25.282c-0.049,106.156-86.201,192.13-192.382,192.096c-32.91,0-65.212-8.475-93.934-24.512
			l-2.324,1.162l-41.469,21.182c104.959,76.202,251.784,52.892,327.944-52.048c29.166-40.107,44.836-88.354,44.856-137.88
			c0-6.054-0.297-12.107-0.718-18.072c-1.354-17.128,7.887-33.405,23.143-41.232l20.23-10.282V233.578z"/>
	</g>
</g>
</svg>
